<svg width="255" height="200" viewBox="0 0 255 200" xmlns="http://www.w3.org/2000/svg">
    <g fill-rule="nonzero" fill="none">
        <path d="M109.357 80.805c3.883-3.789 5.238-10.033 3.028-13.947-2.21-3.914-7.148-4.015-11.03-.226-3.882 3.789-9.339 14.035-7.129 17.95 2.21 3.913 11.25.012 15.131-3.777zM95.96 82.86c-.827-.398-1.052-1.647-.503-2.79.55-1.144 1.665-1.748 2.492-1.35.827.397 1.052 1.646.503 2.79-.55 1.143-1.665 1.747-2.492 1.35z" fill="#3F3D56"/>
        <path d="m104.56 77.922-1.121-1.025a4.656 4.656 0 0 1-1.234-1.511 4.57 4.57 0 0 1-.235-2.572 6.174 6.174 0 0 1 1.671-3.314l-.06.87a6.635 6.635 0 0 1 1.566-1.34c.554-.285 1.163-.265 1.403.244.276.582.014 1.626.387 2.094.646.808 2.329-.937 3.039-.22.414.419.218 1.411.001 2.246a12.513 12.513 0 0 1-1.051 2.975c-.864 1.557-2.442 2.586-3.51 2.166-.32-.15-.61-.358-.856-.613z" fill="#3B71FE"/>
        <path d="M101.25 78.132c-.197-.667.207-1.535.59-2.265l.193-.2c.399-.201.83-.326 1.275-.368a.913.913 0 0 1 .94.642c.113.391.022.95.293 1.18.524.442 1.576-.928 2.076-.45.28.267.078.958-.283 1.297a2.146 2.146 0 0 1-1.206.49l-1.926.32a3.276 3.276 0 0 1-1.145.058 1.011 1.011 0 0 1-.808-.704z" fill="#2F2E41"/>
        <path d="M99.132 78.628c.135-.987.89-2.574 1.562-3.93l.262-.414a6.71 6.71 0 0 1 1.286-1.181c.366-.2.62-.053.528.603-.082.58-.42 1.525-.288 1.77.256.472 1.81-2.227 2.027-1.686.123.303-.374 1.512-.847 2.227-.34.525-.775.982-1.282 1.348l-1.836 1.406c-.3.273-.65.484-1.03.622-.283.051-.464-.167-.382-.765z" fill="#FF6584"/>
        <path d="M99.344 82.213a3.09 3.09 0 0 0-4.168-2.25l-7.18-8.305-1.547 5.492 7.055 7.045a3.105 3.105 0 0 0 5.84-1.982z" fill="#FFB8B8"/>
        <path d="m75.513 50.582-1.904 3.226s5.022 2.49 5.12 4.454c.097 1.965.457 1.467 1.204 2.006.747.54 1.633 1.937 1.661 3.473.029 1.536 11.907 13.437 11.907 13.437l-3.235 4.485a17.321 17.321 0 0 0-3.487-2.517c-1.923-1.01-7.26-2.883-7.648-3.92-.388-1.038-1.95-1.793-3.444-2.872-1.494-1.078 1.708-1.994-.782-3.792C72.415 66.764 58.9 52.609 56.48 51.24c-2.422-1.37-2.437-5.548-2.437-5.548L55.84 43.2l19.673 7.382z" fill="#3F3D56"/>
        <path d="M183.744 134.834v-1.576a7.798 7.798 0 0 0 0-1.4V3.016a3.014 3.014 0 1 0-6.027 0v128.844a7.798 7.798 0 0 0 0 1.399v1.576l-30.507 62.444a7.748 7.748 0 0 0 10.959 0l19.548-49.619v48.875a3.014 3.014 0 1 0 6.027 0v-48.875l19.55 49.619a7.748 7.748 0 0 0 10.958 0l-30.508-62.444zM33.328 181.155a47.838 47.838 0 0 1-8.3-10.99 48.807 48.807 0 0 1-4.86-12.822 46.89 46.89 0 0 1-1.006-13.872 48.584 48.584 0 0 1 10.058-26.01c.356-.456.72-.905 1.092-1.348.415-.494 1.121.218.709.71a47.464 47.464 0 0 0-10.706 25.06 47.201 47.201 0 0 0 13.721 38.563c.46.454-.248 1.163-.708.71z" fill="#E6E6E6"/>
        <path d="M28.816 118.313c.406-.152.803-.326 1.19-.52l.059.091-1.249.429zM36.553 109.47a9.672 9.672 0 0 1-.88 2.642 12.667 12.667 0 0 1-5.278 5.478c-.126.068-.256.14-.387.202-.155-.244-.315-.488-.467-.732-1.022-1.637-1.93-3.358-2.347-5.234-.488-2.193-.223-4.654 1.182-6.409 1.4-1.754 4.076-2.541 6.015-1.405.56.334 1.035.794 1.388 1.342-.193.24-.387.476-.58.715a.73.73 0 0 1-.055.064c-.168.21-.34.416-.509.626-.702.863-1.4 1.73-2.103 2.588a13.3 13.3 0 0 0 3.003.206l.244-.012c.257-.017.517-.038.774-.072zM22.366 126.725l-.27 3.51-.07.95c-.077-.037-.157-.075-.232-.113a20.533 20.533 0 0 1-10.713-13.124c-.25-.98-.427-1.977-.526-2.983 1.363-.21 2.73-.425 4.093-.636a13.435 13.435 0 0 0-4.064-3.522 20.316 20.316 0 0 1 3.68-9.74c.354 5.882 6.512 9.623 8.766 15.063a12.242 12.242 0 0 1-.664 10.595zM21.196 157.548a15.3 15.3 0 0 1-.98.02 20.55 20.55 0 0 1-14.906-6.542 19.972 19.972 0 0 1-3.672-5.753l.084-.012c1.363-.21 2.73-.425 4.093-.636a13.382 13.382 0 0 0-5.573-4.25 20.062 20.062 0 0 1-.068-5.743c3.08 5.02 10.276 5.424 14.823 9.16a12.266 12.266 0 0 1 4.185 7.082c.134.685.206 1.38.214 2.079a9.76 9.76 0 0 1 0 .496l.101.227 1.7 3.872zM34.723 163.359c-.87 1.068-1.741 2.146-2.612 3.214 1.07.197 2.161.262 3.247.194a20.567 20.567 0 0 1-5.37 9.118c-.24.236-.489.467-.741.686-.05.046-.105.093-.156.139l-.227-.644-.004-.004-1.287-3.564a12.179 12.179 0 0 1-3.26-5.98v-.008a11.75 11.75 0 0 1-.206-4.04c.72-5.844 5.657-11.1 4.43-16.86a20.395 20.395 0 0 1 6.098 8.277c-.702.862-1.4 1.73-2.103 2.588a13.3 13.3 0 0 0 3.003.206 19.683 19.683 0 0 1 .572 4.978c-.442.547-.887 1.09-1.329 1.636a.731.731 0 0 1-.055.064zM205.583 192.392a47.859 47.859 0 0 1 .417-13.767 48.809 48.809 0 0 1 4.244-13.04 46.872 46.872 0 0 1 7.906-11.44 48.549 48.549 0 0 1 24.131-13.964 45.776 45.776 0 0 1 1.696-.365c.633-.125.737.872.108.996a47.43 47.43 0 0 0-24.041 12.818 47.202 47.202 0 0 0-13.464 38.654c.074.642-.923.75-.997.108z" fill="#E6E6E6"/>
        <path d="M241.433 140.592c.411.136.83.25 1.253.34l-.012.108-1.24-.448zM253.002 138.55a9.665 9.665 0 0 1-2.34 1.509 12.66 12.66 0 0 1-7.546.96c-.14-.027-.287-.053-.428-.085.032-.288.06-.579.095-.864.229-1.916.599-3.827 1.45-5.55.993-2.015 2.741-3.767 4.935-4.253 2.19-.49 4.768.574 5.568 2.675.227.612.309 1.268.24 1.916-.3.066-.599.128-.9.194a.73.73 0 0 1-.082.015c-.263.058-.526.11-.79.17-1.087.231-2.174.469-3.26.698.658.762 1.4 1.448 2.212 2.043l.198.143c.21.148.427.295.648.43zM231.137 143.104l-2.409 2.566-.651.696c-.035-.077-.074-.157-.11-.234a20.543 20.543 0 0 1-.126-16.943c.418-.92.906-1.808 1.459-2.655 1.193.69 2.393 1.38 3.587 2.07.04-1.81-.287-3.61-.96-5.29a20.302 20.302 0 0 1 8.97-5.285c-3.41 4.806-.954 11.581-2.606 17.235a12.235 12.235 0 0 1-7.154 7.84zM210.918 166.39a15.306 15.306 0 0 1-.777-.598 20.565 20.565 0 0 1-7.518-14.444 19.979 19.979 0 0 1 .742-6.785l.073.043 3.588 2.07a13.391 13.391 0 0 0-1.681-6.805 20.053 20.053 0 0 1 3.545-4.518c-.745 5.842 4.61 10.669 5.813 16.43a12.269 12.269 0 0 1-1.175 8.143 11.538 11.538 0 0 1-1.135 1.755 9.753 9.753 0 0 1-.31.387l-.064.24-1.101 4.082zM217.819 179.399c-1.348.287-2.701.58-4.05.867.712.825 1.52 1.56 2.41 2.187a20.552 20.552 0 0 1-9.898 3.738c-.334.034-.672.058-1.006.07-.068.005-.14.007-.208.011l.226-.644v-.006l1.229-3.584a12.182 12.182 0 0 1 1.205-6.703l.005-.007a11.746 11.746 0 0 1 2.37-3.277c4.222-4.104 11.362-5.103 14.013-10.362a20.404 20.404 0 0 1-.432 10.273c-1.087.232-2.174.47-3.26.698.658.763 1.4 1.448 2.212 2.044a19.677 19.677 0 0 1-2.673 4.237c-.687.15-1.374.293-2.06.443a.731.731 0 0 1-.083.015z" fill="#E6E6E6"/>
        <path d="M236.539 113.556H124.923a4.9 4.9 0 0 1-4.894-4.896V30.593a4.9 4.9 0 0 1 4.894-4.896H236.54a4.9 4.9 0 0 1 4.893 4.896v78.067a4.9 4.9 0 0 1-4.893 4.896z" fill="#F2F2F2"/>
        <path d="M197.234 30.578h-33.006a7.903 7.903 0 0 1-7.893-7.895v-.144h48.791v.144a7.903 7.903 0 0 1-7.892 7.895zM197.377 118.437h-33.005a7.903 7.903 0 0 1-7.893-7.896v-.143h48.79v.143a7.903 7.903 0 0 1-7.892 7.896z" fill="#E6E6E6"/>
        <path d="M189.341 98.482c0 4.757-3.568-.574-8.323-.574-4.755 0-8.61-3.856-8.61-8.614 0-4.757 3.855-8.613 8.61-8.613 4.755 0 8.323 13.044 8.323 17.801zM156.335 55.414c0 4.757-3.854 8.614-8.61 8.614-4.755 0-7.175 9.638-7.175 4.88 0-4.756 2.42-22.107 7.175-22.107 4.756 0 8.61 3.856 8.61 8.613z" fill="#3B71FE"/>
        <path d="M144.746 45.918c1.243-.725 2.764-.476 3.945.259 1.342.835 2.085 2.275 2.413 3.785a12.205 12.205 0 0 1-.017 4.918c-.32 1.564-1.14 3.225-2.803 3.673-1.11.3-2.348-.086-2.752-1.23a2.825 2.825 0 0 1 .512-2.723c.933-1.05 2.56-1.105 3.782-.58 1.437.616 2.313 2.008 2.682 3.48.439 1.752.163 3.569-.3 5.285-.501 1.866-1.166 3.69-1.763 5.526-1.166 3.582-2.238 7.23-2.517 11.005-.426 5.766 1.471 12.418 6.739 15.51 2.843 1.67 6.265 1.936 9.448 1.277 3.357-.695 6.355-2.43 8.959-4.619a39.472 39.472 0 0 0 3.81-3.733 2.818 2.818 0 0 1 3.01-.89c2.739.87 2.234 5.256-.476 5.794-1.23.245-2.565-.348-3.477-1.148a6.686 6.686 0 0 1-2.002-3.418c-.689-2.766.116-5.81 1.751-8.095 1.847-2.582 4.837-4.19 7.796-5.145 3.369-1.089 6.896-1.41 10.4-1.764 3.585-.364 7.208-.787 10.592-2.092a26.5 26.5 0 0 0 7.488-4.445 27.695 27.695 0 0 0 9.107-14.567c.33-1.378.544-2.78.64-4.194.037-.553-.824-.55-.862 0-.421 6.16-3.275 12.02-7.59 16.396a26.254 26.254 0 0 1-7.446 5.308c-3.341 1.58-6.974 2.2-10.62 2.596-3.725.404-7.497.642-11.116 1.68-3.199.919-6.389 2.476-8.568 5.064-1.922 2.283-2.975 5.414-2.6 8.397.35 2.775 2.118 5.632 5.025 6.235 1.363.284 2.775-.077 3.685-1.173a4.345 4.345 0 0 0 .586-4.509 3.602 3.602 0 0 0-4.55-1.647 4.384 4.384 0 0 0-1.562 1.207c-2.484 2.725-5.304 5.268-8.698 6.796-3.166 1.424-6.895 1.96-10.243.87-6.339-2.063-8.767-9.313-8.385-15.405.25-3.987 1.448-7.838 2.685-11.611.633-1.927 1.352-3.848 1.796-5.83.398-1.773.52-3.652-.06-5.402-.505-1.527-1.523-2.886-3.03-3.526-1.37-.582-3.048-.568-4.272.349-1.77 1.325-1.932 4.611.254 5.631 1.45.677 3.198.15 4.267-.974 1.2-1.26 1.59-3.036 1.725-4.717.255-3.176-.445-7.006-3.674-8.44-1.33-.59-2.866-.656-4.149.092a.431.431 0 0 0 .435.744z" fill="#3F3D56"/>
        <path d="M222.06 49.959c0 5.045 7.915 17.908 5.252 21.77-.33.482-.68.95-1.048 1.406a23.71 23.71 0 0 1-4.07 3.994c-.255.201-.513.393-.774.58a24.162 24.162 0 0 1-2.913 1.772c-.184.092-.37.183-.557.275-10.561 5.078-23.244 1.772-29.986-7.816-6.74-9.588-5.564-22.646 2.783-30.873a23.867 23.867 0 0 1 8.274-5.329c.004 0 .004-.003.006-.003a24.05 24.05 0 0 1 13.234-1.105h.006c.098.02.195.04.293.063 10.84 2.294 9.5 3.738 9.5 15.266z" fill="#3B71FE"/>
        <path d="M218.51 79.372a.454.454 0 0 1-.003.109c-.184.092-.37.183-.557.275a.43.43 0 0 1-.302-.384 5.887 5.887 0 0 0-.25-1.278c-1.119-3.606-5.045-5.45-8.472-6.101-4.193-.802-8.604-.468-12.593-2.2a10.874 10.874 0 0 1-4.222-3.072 7.732 7.732 0 0 1-1.68-5.269c.236-4.476 3.39-7.979 4.47-12.202.444-1.74.444-3.555-.348-5.197-.672-1.396-1.877-2.622-3.484-2.794a.417.417 0 0 1-.322-.192c.213-.213.43-.42.655-.623.29.043.577.117.852.22 1.573.604 2.666 1.968 3.28 3.498.71 1.771.644 3.678.15 5.495-1.151 4.238-4.532 7.916-4.4 12.484.115 3.96 3.57 6.43 7.055 7.474 4.31 1.292 8.98.68 13.245 2.177 3.355 1.177 6.613 3.81 6.925 7.58z" fill="#3F3D56"/>
        <path d="M222.195 77.13c-.256.2-.514.392-.775.58a.358.358 0 0 1-.095-.282 14.58 14.58 0 0 0-3.58-10.144 14.397 14.397 0 0 0-3.719-3.084c-1.47-.841-3.082-1.292-4.68-1.814-1.573-.514-3.172-1.137-4.375-2.312-1.225-1.197-1.828-2.82-2.012-4.496-.433-3.974 1.556-7.626 1.717-11.54.071-1.745-.313-3.442-1.395-4.846-.936-1.212-2.316-2.039-3.88-1.855-.517.063-.543-.695-.095-.841a.46.46 0 0 1 .095-.02c1.82-.213 3.47.786 4.551 2.188 1.26 1.628 1.697 3.612 1.57 5.642-.246 3.927-2.313 7.703-1.641 11.694a6.05 6.05 0 0 0 2.591 4.18c1.441.95 3.143 1.379 4.768 1.907a15.955 15.955 0 0 1 4.537 2.222 15.758 15.758 0 0 1 3.519 3.563 15.273 15.273 0 0 1 2.899 9.257zM227.312 71.728c-.33.483-.68.952-1.048 1.407a16.3 16.3 0 0 0-.25-6.713 16.914 16.914 0 0 0-3.943-7.416 14.811 14.811 0 0 0-3.283-2.679c-1.392-.832-2.913-1.536-3.898-2.88-2.135-2.917-.694-6.724-.006-9.86.362-1.636.557-3.379-.111-4.964-.52-1.228-1.547-2.38-2.942-2.52-.548-.055-.551-.92 0-.862.103.012.206.026.31.043 1.524.276 2.698 1.413 3.335 2.814.826 1.829.663 3.804.24 5.72-.694 3.15-2.304 7.321.575 9.894 1.214 1.085 2.79 1.685 4.098 2.647a16.006 16.006 0 0 1 3.123 3.012 17.975 17.975 0 0 1 3.8 12.357z" fill="#3F3D56"/>
        <path fill="#FFB6B6" d="M73.233 190.767h5.094l2.423-19.652h-7.517z"/>
        <path d="M70.545 199.595h3.653l.652-3.45 1.67 3.45h9.686a2.178 2.178 0 0 0 1.238-3.97l-7.736-5.346v-3.487l-8.137.486-1.026 12.317z" fill="#2F2E41"/>
        <path fill="#FFB6B6" d="m33.747 180.658 4.38 2.6 12.106-15.668-6.466-3.835z"/>
        <path d="m26.933 186.88 3.142 1.863 2.32-2.634-.323 3.82 8.332 4.942a2.177 2.177 0 0 0 3.089-2.784l-3.929-8.544 1.779-3-7.247-3.734-7.163 10.07z" fill="#2F2E41"/>
        <path fill="#FFB6B6" d="m73.784 65.11 4.198 15.784-23.513.31 3.094-15.165z"/>
        <path d="m78.072 80.695 4.994 16.293 2.211 43.573-5.73 41.603h-6.343l-2.598-40.925-6.392-28.002 3.742 29.287-19.599 28.667h-9.63l17.705-31.59-10.306-32.792s1.033-16.217 7.57-24.831l1.59-4.599 22.786 3.316z" fill="#2F2E41"/>
        <path d="M78.397 50.573a4.747 4.747 0 0 0-.06-.432c-1.058-7.09-7.647-11.991-14.74-10.963-3.198.48-6.113 2.11-8.196 4.587v.006c-.108.129-.21.264-.31.399-.183.23-.351.473-.513.716a13.034 13.034 0 0 0-2.161 7.47s1.229 6.545 1.485 8.281c.176 1.121.31 2.222.412 3.296.061.54.108 1.074.149 1.594v.007c.202 2.573.27 4.884.33 6.673.028.973.703 3.736.743 3.77.042.03.087.061.135.09a2.41 2.41 0 0 0 2.27.084l3.037-1.417a11.739 11.739 0 0 1 6.464-1c3.61.469 8.868 1.112 9.106.917.284-.243 1.654-12.508 2.012-16.364a33.08 33.08 0 0 0 .108-1.743v-.007a39.841 39.841 0 0 0-.27-5.964z" fill="#3F3D56"/>
        <path d="M95.862 52.778a2.927 2.927 0 0 1-4.179 1.635l-7.708 6.984-.823-5.343 7.446-5.813a2.941 2.941 0 0 1 5.264 2.537z" fill="#FFB8B8"/>
        <path d="M67.174 39.236s7.586 1.417 3.269 16.148l1.667 7.302 7.82-4.501.475-1.903 6.847-4.808 3.238 5.84-3.937 3.762-1.137 2.35-2.02.668-6.256 5.98-2.623 1.604s-3.335 2.067-6.302.947a8.075 8.075 0 0 1-2.195-1.242c-1.295-1.033-2.444-2.612-3.164-5-2.669-8.856-3.671-15.049-3.671-15.049l7.99-12.098zM95.36 59.955l-4.592-17.283a.38.38 0 0 1 .724-.234l6.18 16.153-2.311 1.364z" fill="#3F3D56"/>
        <path d="M99.184 63.873a8.68 8.68 0 0 1-1.938-.65c-.314-.15-.618-.32-.915-.494-.105-.059-.21-.122-.314-.183l-.743-.435c-.211-.122-.424-.246-.633-.37-.308-.18-.64-.389-.73-.736a1.126 1.126 0 0 1 .265-.927c.226-.264.487-.495.776-.688.648-.477 1.297-.952 1.946-1.427l.174-.38a4.91 4.91 0 0 1 1.431.925c.335.34.517.803.503 1.28a1.477 1.477 0 0 1-.051.31c-.126.441-.454.817-.649 1.24-.04.089-.074.18-.102.272a1.947 1.947 0 0 0 .215 1.643c.192.274.457.488.765.62z" fill="#CCC"/>
        <path d="M100.144 64.032a2.062 2.062 0 0 1-.96-.16c.317.07.638.123.96.16z" fill="#E6E6E6"/>
        <path d="M99.184 63.873a8.68 8.68 0 0 1-1.938-.65c-.314-.15-.618-.32-.915-.494-.105-.059-.21-.122-.314-.183l-.743-.435c.087-.117.18-.23.279-.336.92-1.002 2.176-1.567 3.453-1.986a1.477 1.477 0 0 1-.051.309c-.126.441-.454.817-.649 1.24-.04.089-.074.18-.102.272a1.947 1.947 0 0 0 .215 1.643c.192.274.457.488.765.62z" fill="#6C63FF"/>
        <path d="M252.18 199.658a.342.342 0 0 1-.341.342H4.357a.342.342 0 0 1 0-.683H251.84a.34.34 0 0 1 .341.341z" fill="#CCC"/>
        <ellipse fill="#FFB6B6" transform="rotate(-61.337 63.76 27.097)" cx="63.76" cy="27.097" rx="9.945" ry="9.942"/>
        <path d="M57.697 18.983v.007a5.002 5.002 0 0 1-.227 1.505v.004a5.07 5.07 0 0 1-3.458 3.364 4.528 4.528 0 0 1-.719.147 5.037 5.037 0 0 1-1.177.021 4.889 4.889 0 0 1-1.177-.27 1.479 1.479 0 0 1-.174-.062 5.07 5.07 0 0 1-2.7-6.9l.004-.003a4.97 4.97 0 0 1 .995-1.398c.915-.912 1.318-3.197 2.708-3.197a1.9 1.9 0 0 1 .2.007c.931.031 2.655 2.044 3.388 2.52a4.944 4.944 0 0 1 1.39 1.316 5.008 5.008 0 0 1 .947 2.939z" fill="#2F2E41"/>
        <path d="M51.51 17.219c-.787.915-2.018 1.272-3.129 1.748a13.165 13.165 0 0 0-7.645 9.619c-.307 1.714-.267 3.488-.752 5.16-.482 1.67-1.676 3.31-3.39 3.6-1.16.198-2.322-.25-3.412-.692-.6-.241-1.2-.484-1.8-.727.626-1.57 1.25-3.14 1.874-4.711a23.875 23.875 0 0 1-3.475 4.068l-6.455-2.601c5.298.02 4.394-5.125 5.58-10.288.65-2.836 6.199-4.757 7.286-7.456a8.253 8.253 0 0 1 14.97-.752c1.088.433 1.12 2.127.348 3.032zM72.759 17.148c-.97-1.278-3.414-1.328-3.904.2l-1.03-1.398c-1.338-2.922-4.865-2.328-8.055-1.942-3.189.385-6 2.634-7.426 5.513-1.427 2.88-1.557 6.3-.735 9.407.553 2.09 1.568 4.13 3.253 5.485 1.684 1.355 9.602 4.56 10.262 1.8-.824 3.6.833 3.037 3.287 5.797 1.271-3.82 1.867-11.017 3.138-14.836l.574-1.725c.403-1.212.807-2.426 1.099-3.67.366-1.562.507-3.353-.463-4.631z" fill="#2F2E41"/>
        <path d="m66.224 28.113-.425-2.707c.289-3.366-.183-8.72 2.025-9.456l1.35 1.351c-.854.285-2.478 5.318-2.95 10.812z" fill="#FF6584"/>
        <path d="M69.373 13.782c0 2.061-.707 3.732-1.579 3.732-.871 0-1.578-1.67-1.578-3.732 0-2.062 1.578-3.733 1.578-3.733s1.579 1.671 1.579 3.733z" fill="#FF6584"/>
        <path d="M70.675 14.703c-.828 1.888-2.146 3.134-2.945 2.784-.798-.35-.774-2.165.054-4.053.828-1.887 2.945-2.783 2.945-2.783s.774 2.165-.054 4.052z" fill="#FF6584"/>
    </g>
</svg>
