<svg width="240" height="162" viewBox="0 0 240 162" xmlns="http://www.w3.org/2000/svg">
    <g fill-rule="nonzero" fill="none">
        <path d="M16.151 122.076c-1.14 0-2.281.047-3.396.141l-.163.014c-7.397.653-12.808 4.44-12.585 8.809l.043.79c.028.499.058 1.036.083 1.631.014.294.415.52.915.52h181.957c12.829-.078 25.611-.176 37.99-.291a64.771 64.771 0 0 0 6.95-.36c3.44-.406 5.828-1.212 7.3-2.462 1.832-1.551 1.89-3.504 1.779-5.711-.226-4.456-.45-9.137-.673-13.803-.197-4.113-.393-8.215-.59-12.142-.12-2.33-.39-4.387-2.47-5.96-2.254-1.7-6.364-2.562-12.217-2.562h-.212c-18.342.066-36.517 6.36-45.224 15.665-1.003 1.072-1.937 2.219-2.84 3.328-1.336 1.639-2.716 3.333-4.364 4.849a20.5 20.5 0 0 1-3.119 2.393c-.196.127-.4.25-.6.36a20.856 20.856 0 0 1-3.675 1.667l-.129.043a24.106 24.106 0 0 1-2.577.706c-3.32.73-7.094.906-11.218.52a54.297 54.297 0 0 1-11.153-2.268c-3.819-1.205-7.394-2.707-10.85-4.16a271.09 271.09 0 0 0-4.658-1.922 84.415 84.415 0 0 0-6.189-2.23 52.492 52.492 0 0 0-12.652-2.339c-4.562-.249-8.582.221-11.946 1.395-.927.322-1.83.71-2.702 1.162-3.984 2.065-6.44 5.113-8.815 8.06-2.955 3.666-6.01 7.458-12.043 9.423-6.961 2.27-17.123 1.327-24.312-.313-2.26-.516-4.517-1.109-6.7-1.683-.882-.232-1.765-.462-2.648-.69a128.35 128.35 0 0 0-4.469-1.08l-.415-.092c-.231-.05-.463-.1-.698-.148a67.78 67.78 0 0 0-4.445-.786l-.339-.05a62.9 62.9 0 0 0-1.936-.226l-.248-.024a39.836 39.836 0 0 0-3.747-.174z" fill="#F2F2F2"/>
        <path d="M204.306 126.952c5.12-4.605 12.735-6.92 19.123-4.338a31.712 31.712 0 0 0-14.27 16.451c-1.017 2.7-1.866 5.81-4.367 7.256-1.557.9-3.493.944-5.238.51-1.745-.435-3.345-1.306-4.923-2.167l-.448-.01c2.015-6.579 5.003-13.097 10.123-17.702z" fill="#E6E6E6"/>
        <path d="M223.393 122.754a27.163 27.163 0 0 0-15.1 7.117 11.67 11.67 0 0 0-2.295 2.849 6.68 6.68 0 0 0-.774 3.435c.027 1.114.185 2.25-.06 3.352a4.098 4.098 0 0 1-2.041 2.659c-1.25.717-2.684.943-4.094 1.116-1.565.191-3.194.366-4.55 1.242-.164.106-.319-.154-.155-.26 2.357-1.525 5.34-.97 7.875-1.988 1.183-.475 2.23-1.308 2.6-2.568.324-1.102.163-2.274.125-3.402a7.128 7.128 0 0 1 .632-3.387 10.786 10.786 0 0 1 2.177-2.926 26.33 26.33 0 0 1 6.692-4.782 27.66 27.66 0 0 1 8.965-2.76c.194-.026.195.278.003.303z" fill="#FFF"/>
        <path d="M209.559 128.538a4.059 4.059 0 0 1 .448-5.244c.14-.137.36.072.22.21a3.758 3.758 0 0 0-.408 4.878c.114.159-.147.313-.26.156zM205.135 135.592a7.86 7.86 0 0 0 5.608-1.12c.165-.106.32.154.156.26a8.176 8.176 0 0 1-5.838 1.154c-.193-.035-.118-.328.074-.294zM217.259 124.189c.311.708.959 1.213 1.724 1.343.193.032.117.326-.075.294a2.582 2.582 0 0 1-1.91-1.482.157.157 0 0 1 .052-.208.153.153 0 0 1 .209.053z" fill="#FFF"/>
        <path d="M230.463 144.821a30.412 30.412 0 0 0-5.283-.298 32.052 32.052 0 0 0-11.864 2.649 31.097 31.097 0 0 0-4.17 2.212c-1.84 1.162-3.74 2.569-5.797 3.043a5.34 5.34 0 0 1-.65.115l-8.494-7.341c-.011-.027-.024-.051-.035-.078l-.352-.277.2-.145.116-.083c.026-.018.052-.036.074-.054a.425.425 0 0 1 .024-.016l.066-.049c.386-.272.774-.543 1.165-.81.001-.003.001-.003.005-.003a45.723 45.723 0 0 1 9.516-5.105c.1-.038.203-.078.308-.113 1.514-.562 3.072-1 4.658-1.308a26.263 26.263 0 0 1 2.627-.367 21.84 21.84 0 0 1 6.8.481c4.439 1.028 8.5 3.46 10.905 7.256.062.097.121.192.181.291z" fill="#E6E6E6"/>
        <path d="M230.35 144.912a27.184 27.184 0 0 0-16.35-3.39c-1.222.11-2.42.412-3.55.895a6.7 6.7 0 0 0-2.69 2.277c-.65.906-1.21 1.908-2.07 2.64a4.11 4.11 0 0 1-3.234.897c-1.43-.179-2.712-.86-3.942-1.57-1.365-.787-2.77-1.627-4.381-1.741-.195-.014-.162-.316.033-.302 2.802.2 4.849 2.435 7.487 3.146 1.23.332 2.569.295 3.625-.488.923-.685 1.501-1.718 2.151-2.641a7.148 7.148 0 0 1 2.548-2.325 10.82 10.82 0 0 1 3.503-1.028 26.38 26.38 0 0 1 8.228.204 27.656 27.656 0 0 1 8.823 3.183c.17.096-.012.34-.18.243z" fill="#FFF"/>
        <path d="M215.815 141.217a4.067 4.067 0 0 1 3.522-3.917c.194-.026.243.274.049.3a3.766 3.766 0 0 0-3.269 3.65c-.004.195-.306.16-.302-.033zM208.028 144.191a7.854 7.854 0 0 0 5.154 2.476c.196.014.163.316-.032.301a8.17 8.17 0 0 1-5.358-2.587c-.133-.143.104-.332.236-.19zM224.587 142.372a2.298 2.298 0 0 0 .566 2.109c.135.141-.103.33-.237.19a2.575 2.575 0 0 1-.631-2.332.157.157 0 0 1 .167-.134c.083.01.143.084.135.167z" fill="#FFF"/>
        <path d="M70.277 131.532c4.192-6.347 11.692-10.938 19.243-9.95a35.002 35.002 0 0 0-10.676 21.558c-.335 3.17-.377 6.732-2.649 8.973-1.414 1.394-3.472 1.979-5.46 1.999-1.987.02-3.94-.467-5.869-.95l-.482.113c.321-7.595 1.7-15.396 5.893-21.743z" fill="#E6E6E6"/>
        <path d="M89.521 121.741a29.98 29.98 0 0 0-14.165 11.806 12.88 12.88 0 0 0-1.661 3.683 7.381 7.381 0 0 0 .129 3.89c.34 1.184.825 2.355.87 3.6a4.523 4.523 0 0 1-1.442 3.412c-1.137 1.114-2.607 1.754-4.067 2.33-1.621.64-3.315 1.278-4.52 2.592-.146.16-.385-.076-.239-.235 2.097-2.285 5.442-2.52 7.87-4.313 1.132-.836 2.02-2.018 2.064-3.469.04-1.268-.46-2.477-.815-3.672a7.876 7.876 0 0 1-.267-3.799c.288-1.321.8-2.584 1.512-3.734a29.058 29.058 0 0 1 5.825-6.972 30.536 30.536 0 0 1 8.819-5.442c.2-.08.286.244.087.323z" fill="#FFF"/>
        <path d="M76.337 131.77a4.486 4.486 0 0 1-.982-5.734c.111-.185.404-.022.294.163a4.154 4.154 0 0 0 .923 5.332c.167.137-.07.375-.235.238zM73.572 140.542a8.68 8.68 0 0 0 5.686-2.756c.147-.158.385.077.24.235a9.028 9.028 0 0 1-5.924 2.856c-.215.017-.217-.318-.002-.335zM83.36 124.98a2.55 2.55 0 0 0 2.218.958c.216-.02.217.316.003.335a2.857 2.857 0 0 1-2.456-1.055.173.173 0 0 1-.002-.237.169.169 0 0 1 .237-.001z" fill="#FFF"/>
        <path d="M103.234 143.38c-.135.016-.269.032-.404.05-1.804.222-3.586.59-5.33 1.1-.135.036-.272.076-.406.117a35.389 35.389 0 0 0-11.545 6.01 34.32 34.32 0 0 0-3.843 3.523c-1.643 1.753-3.285 3.785-5.352 4.863a5.897 5.897 0 0 1-.662.304l-11.132-5.493c-.019-.025-.04-.048-.058-.073l-.455-.199.174-.21c.033-.041.068-.08.1-.121.023-.027.046-.054.065-.079a.473.473 0 0 1 .021-.024c.02-.025.04-.047.057-.07.337-.398.677-.795 1.02-1.19.001-.003.001-.003.005-.004 2.623-3.006 5.52-5.819 8.754-8.103.097-.069.196-.14.298-.206a32.787 32.787 0 0 1 4.618-2.693c.883-.42 1.787-.793 2.708-1.121a24.132 24.132 0 0 1 7.405-1.374c5.035-.134 10.057 1.34 13.687 4.732.093.086.183.172.275.261z" fill="#E6E6E6"/>
        <path d="M103.139 143.51a30.048 30.048 0 0 0-18.432.912 12.924 12.924 0 0 0-3.548 1.944 7.394 7.394 0 0 0-2.243 3.182c-.443 1.15-.762 2.377-1.477 3.4a4.538 4.538 0 0 1-3.21 1.856c-1.58.206-3.14-.166-4.652-.584-1.68-.463-3.418-.971-5.172-.646-.213.039-.262-.293-.05-.332 3.053-.565 5.866 1.258 8.885 1.286 1.409.013 2.83-.398 3.741-1.53.797-.988 1.127-2.253 1.565-3.421a7.889 7.889 0 0 1 2.077-3.194 11.946 11.946 0 0 1 3.46-2.072 29.146 29.146 0 0 1 8.857-2.067c3.47-.272 6.962.05 10.324.954.208.056.081.367-.125.311z" fill="#FFF"/>
        <path d="M86.563 143.593a4.49 4.49 0 0 1 2.675-5.168c.2-.08.335.226.135.307a4.157 4.157 0 0 0-2.478 4.812c.05.21-.283.257-.332.049zM79.063 148.936a8.687 8.687 0 0 0 6.203 1.216c.212-.038.261.293.049.332a9.036 9.036 0 0 1-6.452-1.279c-.182-.116.019-.385.2-.269zM96.266 142.392a2.542 2.542 0 0 0 1.193 2.098c.184.115-.018.383-.2.27a2.848 2.848 0 0 1-1.325-2.319.173.173 0 0 1 .141-.19.169.169 0 0 1 .191.141z" fill="#FFF"/>
        <path d="M100.114 83.947a2.676 2.676 0 0 0-.353-4.093l4.382-21.165-4.727 1.489-3.525 20.475a2.69 2.69 0 0 0 .645 3.52 2.702 2.702 0 0 0 3.578-.226z" fill="#FFB6B6"/>
        <path d="m110.241 27.372-2.928-2.206s-2.583-.183-3.04 4.467c-.458 4.65-3.322 22.495-3.322 22.495L96.47 72.842l6.202 1.358 4.8-22.354 4.804-15.422-2.035-9.052z" fill="#E6E6E6"/>
        <path d="M108.01 65.7 93.965 54.8a1.044 1.044 0 0 1-.183-1.466l9.557-12.268a1.049 1.049 0 0 1 1.468-.183l14.046 10.9c.455.355.538 1.01.184 1.466l-9.557 12.268a1.049 1.049 0 0 1-1.468.183z" fill="#3F3D56"/>
        <path d="M107.933 64.572 95.08 54.596a.927.927 0 0 1-.163-1.301l8.663-11.121a.931.931 0 0 1 1.304-.163l12.854 9.976a.927.927 0 0 1 .164 1.301l-8.664 11.121a.931.931 0 0 1-1.304.163z" fill="#FFF"/>
        <path d="M96.764 54.313a.232.232 0 0 1-.04-.325l4.37-5.61a.233.233 0 0 1 .367.284l-4.371 5.61a.233.233 0 0 1-.326.041zM97.488 54.875a.232.232 0 0 1-.04-.325l4.37-5.61a.232.232 0 0 1 .367.284l-4.37 5.61a.233.233 0 0 1-.327.041zM100.689 52.26a.232.232 0 0 1-.04-.326l1.894-2.432a.232.232 0 0 1 .366.284l-1.894 2.432a.233.233 0 0 1-.326.041zM101.666 57.032a.232.232 0 0 1-.041-.326l6.9-8.857a.233.233 0 0 1 .366.285l-6.9 8.857a.233.233 0 0 1-.325.04zM102.39 57.594a.232.232 0 0 1-.04-.326l6.899-8.857a.232.232 0 0 1 .367.285l-6.9 8.857a.233.233 0 0 1-.326.04zM104.034 58.87a.232.232 0 0 1-.04-.325l6.9-8.857a.232.232 0 0 1 .366.284l-6.9 8.857a.233.233 0 0 1-.326.04zM104.759 59.432a.232.232 0 0 1-.041-.325l6.9-8.857a.232.232 0 0 1 .366.284l-6.9 8.857a.233.233 0 0 1-.325.041zM106.403 60.708a.232.232 0 0 1-.04-.325l6.899-8.857a.232.232 0 0 1 .367.284l-6.9 8.857a.233.233 0 0 1-.326.041zM107.127 61.27a.232.232 0 0 1-.04-.325l6.9-8.857a.233.233 0 0 1 .366.285l-6.9 8.857a.233.233 0 0 1-.326.04z" fill="#E4E4E4"/>
        <circle fill="#FFF" cx="95.595" cy="71.461" r="1"/>
        <path d="M109.489 5.983a22.883 22.883 0 0 1-1.638 5.218c-4.31 9.101 7.964 6.135 12.351 6.135 4.796 0 9.385 2.517 8.684-8.668-.3-4.778-3.888-8.668-8.684-8.668-4.097 0-9.857 1.817-10.713 5.983z" fill="#2F2E41"/>
        <path fill="#FFB6B6" d="M124.673 139.465h-4.087l-1.944-15.732h6.03z"/>
        <path d="M126.83 146.532h-2.931l-.523-2.762-1.34 2.762h-7.772a1.742 1.742 0 0 1-.993-3.179l6.207-4.278v-2.792l6.528.389.823 9.86z" fill="#2F2E41"/>
        <path fill="#FFB6B6" d="m148.95 134.318-3.28 2.434-10.965-11.466 4.84-3.592z"/>
        <path d="m154.905 138.704-2.351 1.746-2.071-1.905.576 3.014-6.237 4.63a1.75 1.75 0 0 1-2.071.01 1.742 1.742 0 0 1-.626-1.97l2.423-7.13-1.67-2.24 5.472-3.577 6.555 7.422z" fill="#2F2E41"/>
        <path fill="#FFB6B6" d="m111.29 67.062 19.397-3.016-3.857-11.583h-15.54z"/>
        <path d="M129.43 58.297s7.753 6.686 4.176 25.746l-4.367 18.675 11.898 20.618-6.05 3.294-14.663-20.34-6.71-15.71-3.548-27.532 19.264-4.75z" fill="#2F2E41"/>
        <path fill="#2F2E41" d="m117.413 95.057-.466 7.208 1.365 21.346 6.777 2.33 1.283-21.872z"/>
        <path d="m115.33 19.735 7.497.292 2.989 4.95 6.818 1.33-4.07 20.551.748 11.698-6.789-.04a19.88 19.88 0 0 0-13.287 4.981l.203-15.185-2.92-11.335.657-11.886 5.484-.684 2.67-4.672z" fill="#E6E6E6"/>
        <ellipse fill="#FFB6B6" cx="119.483" cy="10.29" rx="7.057" ry="7.044"/>
        <path d="M114.691 3.11a8.097 8.097 0 0 1 8.232-.108 8.065 8.065 0 0 1 4.058 7.15c-3.596.9-7.374 1.59-11.209.215l-.905-2.212-.534 2.214c-1.168.476-2.339.88-3.51-.005a8.234 8.234 0 0 1 3.868-7.254z" fill="#2F2E41"/>
        <path d="m131.329 72.757.95 8.617c.137.442.545.743 1.008.743h4.385c.463 0 .871-.301 1.007-.743l.788-6.604a1.603 1.603 0 0 0 1.858-.327c.482-.5.586-1.254.256-1.865a1.601 1.601 0 0 0-1.701-.813 1.045 1.045 0 0 0-.8-.37h-6.744a1.055 1.055 0 0 0-1.007 1.362zm8.276 1.566.483-1.566a1.04 1.04 0 0 0 .016-.557c.02 0 .04-.006.06-.006a1.142 1.142 0 1 1 0 2.281 1.13 1.13 0 0 1-.559-.152z" fill="#6C63FF"/>
        <path d="M137.94 82.123a2.676 2.676 0 0 1 .374-4.091l-4.273-21.188 4.719 1.513 3.42 20.493a2.69 2.69 0 0 1-.663 3.516 2.702 2.702 0 0 1-3.576-.243z" fill="#FFB6B6"/>
        <path d="m129.706 28.513 2.928-2.207s2.583-.182 3.04 4.467c.458 4.65 3.322 22.495 3.322 22.495l4.481 20.714-6.202 1.359-4.8-22.354-4.804-15.422 2.035-9.052z" fill="#E6E6E6"/>
        <ellipse fill="#6C63FF" cx="104.433" cy="46.145" rx="1.658" ry="1.654"/>
        <path fill="#FFB6B6" d="M51.577 158.658h3.454l1.643-13.3-5.098.001z"/>
        <path d="M50.695 157.532h.973l3.796-1.54 2.034 1.54a4.332 4.332 0 0 1 4.336 4.327v.14L50.696 162v-4.468z" fill="#2F2E41"/>
        <path fill="#FFB6B6" d="m64.963 156.485 3.37.76 4.538-12.611-4.974-1.121z"/>
        <path d="m64.352 155.193.948.214 4.043-.668 1.645 1.95a4.327 4.327 0 0 1 3.274 5.174l-.031.137-10.865-2.449.986-4.358zM45.253 90.25l3.123 34.932s-1.17 20.971 2.607 28.351h5.477l2.712-30.266.34-20.315 11.743 17.139-7.48 32.947 6.742.602 12.137-35.756L69.32 84.318 45.253 90.25z" fill="#2F2E41"/>
        <ellipse fill="#FFB8B8" cx="48.524" cy="26.581" rx="8.056" ry="8.041"/>
        <path d="m62.686 42.284-6.61-2.83-3.216-3.406-8.038 1.294-2.132 3.65-6.903 6.406 8.088 36.5-.245 7.972s5.176 2.326 27.625-3.03c.27-.063-.294-.345-.294-.345l-8.275-46.21z" fill="#3F3D56"/>
        <path d="M40.147 31.144a16.45 16.45 0 0 1-.166-.231c-.023.046-.04.094-.065.14l.231.09zM56.538 20.7a5.136 5.136 0 0 0-2.69-2.593 4.916 4.916 0 0 0-3.68.003c-1.064-.672-2.248-1.204-3.494-1.27-1.246-.066-2.564.395-3.332 1.411a5.43 5.43 0 0 1-.582.755c-.617.57-1.555.488-2.376.372l1.105.944-1.337.349 1.56.944c-1.51.904-2.195 2.877-2.014 4.67.171 1.697.992 3.248 1.973 4.628.392-.825.307-1.811.3-2.74-.006-.981.168-2.095.956-2.643.53-.37 1.214-.387 1.855-.383 3.232.017 6.46.219 9.669.602.435.019.86.142 1.238.359.71.483.848 1.48.92 2.355.374-1.445.557-2.932.545-4.424a8.14 8.14 0 0 0-.616-3.339z" fill="#2F2E41"/>
        <ellipse fill="#FFF" cx="59.046" cy="102.082" rx="12.679" ry="12.655"/>
        <path d="M59.046 89.145a13.044 13.044 0 0 0-2.917.332 12.943 12.943 0 0 0-9.675 9.532 12.916 12.916 0 0 0 4.849 13.44 12.978 12.978 0 0 0 15.276.156 12.92 12.92 0 0 0 4.81-14.474 12.956 12.956 0 0 0-12.343-8.986zm0 25.311a12.342 12.342 0 0 1-7.997-2.927 12.353 12.353 0 0 1-4.014-12.518 12.38 12.38 0 0 1 10.495-9.21 12.29 12.29 0 0 1 1.516-.093c6.847 0 12.397 5.54 12.397 12.374 0 6.834-5.55 12.374-12.397 12.374z" fill="#3F3D56"/>
        <rect fill="#6C63FF" transform="rotate(-180 59.046 98.707)" x="52.002" y="97.864" width="14.088" height="1.687" rx=".823"/>
        <rect fill="#6C63FF" transform="rotate(-180 59.046 102.082)" x="52.002" y="101.238" width="14.088" height="1.687" rx=".823"/>
        <rect fill="#6C63FF" transform="rotate(180 59.046 105.457)" x="52.002" y="104.613" width="14.088" height="1.687" rx=".823"/>
        <path fill="#9E616A" d="M200.9 158.229h-3.622l-1.724-13.945h5.346zM183.764 158.229h-3.622l-1.724-13.945h5.346z"/>
        <path d="M183.891 162h-11.138v-.141a4.332 4.332 0 0 1 4.335-4.327l2.035-1.54 3.796 1.54h.972V162zM201.492 162h-11.139v-.141a4.332 4.332 0 0 1 4.336-4.327l2.035-1.54 3.796 1.54h.972V162zM180.21 75.699l-5.504 33.456 1.498 4.986-1.966 3.53 2.887 31.01-1.172 2.575 3.274 2.016h6.663l.353-28.073 1.646-4.122v-2.272l3.35-17.118.617 23.973.975 4.128-.819 2.94 1.07 2.059 2.84 19.096h7.471l-.577-4.442a3.282 3.282 0 0 0 1.727-3.634l-.428-1.947.974-5.758 1.776-32.122-.5-25.919-8.74-6.67L180.21 75.7z" fill="#2F2E41"/>
        <ellipse fill="#9E616A" cx="192.831" cy="25.809" rx="6.941" ry="6.928"/>
        <path d="M177.666 88.975a2.962 2.962 0 0 0-.476-4.522l2.699-10.187-5.2 1.745-1.766 9.407a2.978 2.978 0 0 0 .788 3.881 2.991 2.991 0 0 0 3.955-.324z" fill="#9E616A"/>
        <path d="m180.506 40.062-1.116-.23-.952.525s-2.66 3.539-2.66 6.783-3.249 34.502-3.249 34.502l5.909 2.654 4.727-24.476-2.659-19.758z" fill="#E6E6E6"/>
        <path d="M198.909 20.73s1.815-3.464-2.179-3.779c0 0-3.404-3.083-6.875-.563 0 0-1.893 0-2.928 2.138 0 0-1.489-.564-1.816.944 0 0-1.09 3.15 0 5.984s1.451 3.149 1.451 3.149-1.79-5.942 2.568-6.257c4.357-.315 9.233-3.033 9.596.43.363 3.465.91 4.318.91 4.318s3.449-4.947-.727-6.364z" fill="#2F2E41"/>
        <path d="M224.264 117.672c-.524 0-1.03-.192-1.42-.541l-21.006-18.663a2.135 2.135 0 0 1-.175-3.015l13.456-15.088a2.145 2.145 0 0 1 3.021-.176l21.006 18.664c.882.784.96 2.134.175 3.014l-13.456 15.089a2.126 2.126 0 0 1-1.601.716z" fill="#FFF"/>
        <path d="M224.263 117.809a2.263 2.263 0 0 1-1.51-.575L201.746 98.57a2.273 2.273 0 0 1-.187-3.21l13.456-15.088a2.283 2.283 0 0 1 3.215-.186l21.006 18.663a2.27 2.27 0 0 1 .187 3.209l-13.457 15.088a2.265 2.265 0 0 1-1.704.762zm-7.545-37.748a1.724 1.724 0 0 0-1.29.577L201.97 95.727c-.633.711-.57 1.8.142 2.434l21.005 18.663a1.729 1.729 0 0 0 2.439-.142l13.456-15.088c.634-.711.57-1.8-.142-2.434l-21.005-18.663a1.722 1.722 0 0 0-1.148-.436z" fill="#3F3D56"/>
        <path d="M231.88 103.382a.923.923 0 0 1-.614-.233l-16.489-14.65a.923.923 0 0 1 .323-1.57.927.927 0 0 1 .908.19l16.489 14.65a.923.923 0 0 1-.616 1.613zM228.736 106.909a.923.923 0 0 1-.615-.234l-16.489-14.65a.923.923 0 0 1-.076-1.304.927.927 0 0 1 1.307-.076l16.489 14.65a.922.922 0 0 1-.616 1.614zM225.59 110.435a.922.922 0 0 1-.615-.233l-16.488-14.65a.923.923 0 0 1 .324-1.568.927.927 0 0 1 .907.188l16.489 14.65a.923.923 0 0 1-.616 1.613z" fill="#6C63FF"/>
        <path d="M206.735 89.577a2.96 2.96 0 0 1 1.625-4.248l.018-10.538 4.575 3.022-.718 9.544a2.98 2.98 0 0 1-1.763 3.548 2.99 2.99 0 0 1-3.737-1.328z" fill="#9E616A"/>
        <path d="m207.158 42.95 2.043-1.966 1.502 1.081s1.477 1.77 2.659 7.078c1.182 5.308 0 34.502 0 34.502l-6.5-.885.886-15.334-2.659-12.975 2.069-11.5z" fill="#E6E6E6"/>
        <path d="m210.176 41.463-6.886-3.283-4.676-4.328-8.525-.064-2.75 3.569-7.26 2.461 1.21 24.988-.825 1.921s.575.519.837.809c.263.29-.363 2.716-.363 2.716l-.352 2.64.978.698-1.272 1.499-.316 2.363s22.198-5.506 26.392 3.616c.222.482-.324-4.228-.324-4.228l-.546-3.449.542-3.095.825-.824-1.384-1.38.887-6.554 3.808-20.075z" fill="#3F3D56"/>
        <path d="M54.014 96.859a3.179 3.179 0 0 0-.166-2.69 3.19 3.19 0 0 0-2.172-1.598l-1.53-11.212-4.435 3.87 2.133 10.053a3.209 3.209 0 0 0 6.17 1.577z" fill="#FFB8B8"/>
        <path d="m36.638 47.193-1.202.23-.727.913s-1.175 4.602.164 7.818C36.212 59.371 45.894 91.7 45.894 91.7l6.954.202-5.417-26.213-10.793-18.496z" fill="#3F3D56"/>
        <path d="M64.054 95.214a3.18 3.18 0 0 1 .568-4.849l-2.768-10.972 5.56 1.94 1.777 10.122a3.197 3.197 0 0 1-.895 4.157 3.212 3.212 0 0 1-4.242-.398z" fill="#FFB8B8"/>
        <path d="m61.625 42.663 1.2-.234 1.016.577s2.81 3.833 2.77 7.315c-.042 3.483 3.051 37.085 3.051 37.085l-6.378 2.774-4.765-26.338 3.106-21.179z" fill="#3F3D56"/>
    </g>
</svg>
